<svg version="1.2" xmlns="http://www.w3.org/2000/svg" viewBox="0 0 1280 1280" width="520" height="520">
	<style>
		.s0 { fill: #3a00be } 
	</style>
	<path id="CW" class="s0" aria-label="CW"  d="m276.3 1061.8q-93.3 0-150.4-58.1-56.7-58.1-56.7-162.6v-396.5q0-125 49.4-191.4 49.8-66.4 161.6-66.4 61 0 108.4 22.5 47.8 22.4 75.2 67.4 27.3 44.4 27.3 112.3v148.4h-170.9v-127q0-38.5-9.7-51.7-9.8-13.7-30.3-13.7-23.9 0-32.2 17.6-8.3 17.1-8.3 45.9v430.2q0 35.6 10.2 50.3 10.8 14.6 30.3 14.6 22 0 30.7-18.1 9.3-18 9.3-46.8v-154.8h172.9v162.6q0 113.3-57.2 164.5-57.1 50.8-159.6 50.8zm551.6-7.8h-209.4l-92.3-859.4h168l47.3 542.5 48.4-542.5h160.1l45.9 542.5 45.9-542.5h169.9l-93.7 859.4h-206.1l-42.9-413.6z"/>
</svg>